<?xml version="1.0" encoding="iso-8859-1"?>
<!-- Uploaded to: SVG Repo, www.svgrepo.com, Generator: SVG Repo Mixer Tools -->
<svg height="800px" width="800px" version="1.1" id="Layer_1" xmlns="http://www.w3.org/2000/svg" xmlns:xlink="http://www.w3.org/1999/xlink" 
	 viewBox="0 0 393.568 393.568" xml:space="preserve">
<circle style="fill:#F0582F;" cx="196.784" cy="196.784" r="196.784"/>
<path style="fill:#F1F3F7;" d="M343.273,195.749h-18.36c0-70.723-57.665-128.388-128.388-128.388s-128.388,57.6-128.388,128.388
	h-18.36c0-80.679,65.745-146.489,146.489-146.489C277.463,49.261,343.273,115.006,343.273,195.749z"/>
<circle style="fill:#4F5565;" cx="196.784" cy="195.749" r="112.162"/>
<path style="fill:#F6CEB0;" d="M234.537,160.129c0,0-20.428,53.98-124.703,67.879v29.543c0,47.968,38.788,86.756,86.756,86.756l0,0
	c47.968,0,86.756-38.788,86.756-86.756v-33.81C240.808,200.727,234.537,160.129,234.537,160.129z"/>
<path style="fill:#F1F3F7;" d="M59.216,177.907c-10.731,0-19.394,8.663-19.394,19.394v57.923c0,10.731,8.663,19.394,19.394,19.394
	s19.394-8.663,19.394-19.394v-57.923C78.869,186.57,69.947,177.907,59.216,177.907z"/>
<path style="fill:#6EB1E1;" d="M39.305,197.301c-15.968,0-28.832,12.865-28.832,28.832s12.865,28.832,28.832,28.832h0.517v-57.665
	H39.305z"/>
<path style="fill:#F1F3F7;" d="M334.352,274.618c10.731,0,19.394-8.663,19.394-19.394v-57.923c0-10.731-8.663-19.394-19.394-19.394
	c-10.731,0-19.394,8.663-19.394,19.394v57.923C314.699,265.956,323.62,274.618,334.352,274.618z"/>
<path style="fill:#6EB1E1;" d="M354.263,254.966c15.968,0,28.832-12.865,28.832-28.832s-12.865-28.832-28.832-28.832h-0.517v57.665
	H354.263z"/>
</svg>